<?xml version="1.0" encoding="utf-8"?>
<svg version="1.1" id="Layer_1" xmlns="http://www.w3.org/2000/svg" xmlns:xlink="http://www.w3.org/1999/xlink" x="0px" y="0px"
	 viewBox="0 0 200 200" style="enable-background:new 0 0 200 200;" xml:space="preserve">
<path fill="#58595B" d="M137.5,70.1c31.9,0,57.7,22.6,57.7,50.5c0,12.7-5.4,24.3-14.2,33.2c0.7,7.3,3,15.4,5.6,21.4
	c0.6,1.3-0.5,2.8-2,2.6c-16.3-2.7-26-6.8-30.2-8.9c-5.5,1.5-11.2,2.2-16.9,2.2c-31.9,0-57.7-22.6-57.7-50.5S105.6,70.1,137.5,70.1z"
	/>
<path fill="#E6E7E8" d="M112.3,99c-2,0-3.6,1.6-3.6,3.6s1.6,3.6,3.6,3.6h50.5c2,0,3.6-1.6,3.6-3.6s-1.6-3.6-3.6-3.6H112.3z"/>
<path fill="#E6E7E8" d="M112.3,117c-2,0-3.6,1.6-3.6,3.6c0,2,1.6,3.6,3.6,3.6h50.5c2,0,3.6-1.6,3.6-3.6c0-2-1.6-3.6-3.6-3.6H112.3z"/>
<path fill="#E6E7E8" d="M133.9,135c-2,0-3.6,1.6-3.6,3.6c0,2,1.6,3.6,3.6,3.6h28.9c2,0,3.6-1.6,3.6-3.6c0-2-1.6-3.6-3.6-3.6H133.9z"/>
<g>
	<path fill="#FFFFFF" d="M23.6,118.9c-0.6,6-1.8,11.9-3.5,17.6c12.3-2.8,19.8-6.1,23.2-7.9c1.9-1,4.2-1.2,6.3-0.7
		c6,1.6,12.2,2.4,18.4,2.4c35.2,0,61.7-24.7,61.7-52.9c0-28.1-26.5-52.9-61.7-52.9S6.2,49.4,6.2,77.5c0,12.9,5.4,24.9,14.8,34.3
		C22.9,113.7,23.8,116.3,23.6,118.9"/>
	<path fill="#414042" d="M25.9,108.6c1.7,1.7,2.5,4,2.3,6.3c-0.6,5.4-1.6,10.6-3.1,15.8c11-2.6,17.7-5.5,20.8-7.1
		c1.7-0.9,3.7-1.1,5.6-0.6c5.4,1.4,10.9,2.2,16.5,2.1c31.6,0,55.3-22.2,55.3-47.4c0-25.2-23.7-47.4-55.3-47.4S12.7,52.6,12.7,77.8
		C12.7,89.4,17.5,100.2,25.9,108.6z M22,139.4c-1.9,0.4-3.7,0.7-5.6,1c-1.6,0.3-2.8-1.4-2.2-2.9c0.7-1.7,1.3-3.3,1.9-5l0-0.1
		c2-5.7,3.6-12.2,4.1-18.3c-9.7-9.7-15.6-22.4-15.6-36.3c0-30.5,28.3-55.3,63.2-55.3s63.2,24.7,63.2,55.3s-28.3,55.3-63.2,55.3
		c-6.3,0-12.5-0.8-18.5-2.4C45.3,132.8,36.5,136.6,22,139.4z"/>
	<path fill="#414042" d="M36.3,58.1c0-2.2,1.8-3.9,3.9-3.9h55.3c2.2,0,3.9,1.8,3.9,3.9c0,2.2-1.8,3.9-3.9,3.9H40.3
		C38.1,62,36.3,60.3,36.3,58.1z M36.3,77.8c0-2.2,1.8-3.9,3.9-3.9h55.3c2.2,0,3.9,1.8,3.9,3.9c0,2.2-1.8,3.9-3.9,3.9H40.3
		C38.1,81.8,36.3,80,36.3,77.8z M36.3,97.6c0-2.2,1.8-3.9,3.9-3.9h31.6c2.2,0,3.9,1.8,3.9,3.9s-1.8,3.9-3.9,3.9H40.3
		C38.1,101.5,36.3,99.8,36.3,97.6z"/>
</g>
</svg>
