<?xml version="1.0" encoding="utf-8"?>
<svg version="1.1" id="Layer_1" xmlns="http://www.w3.org/2000/svg" xmlns:xlink="http://www.w3.org/1999/xlink" x="0px" y="0px"
	 viewBox="0 0 200 200" style="enable-background:new 0 0 200 200;" xml:space="preserve">
<g>
	<path fill="#2B2B2B" d="M170.3,37.6c-2.3,5.3-5.2,10.3-8.7,14.9c-14.3-18.5-36.7-30.4-62-30.4S52.1,34,37.7,52.5
		c-3.4-4.6-6.3-9.6-8.7-14.9C46.4,18.1,71.6,5.9,99.7,5.9C127.8,5.9,153,18.1,170.3,37.6z"/>
	<path fill="#696969"  d="M88.8,177.9c-2.3,5.3-5.1,10.3-8.5,15c-42.9-8.9-75.1-47-75.1-92.5c0-10.2,1.6-20.1,4.6-29.3
		c2.6-0.3,5.3-0.4,8-0.4c3.1,0,6.2,0.2,9.2,0.6c-3.6,9-5.6,18.9-5.6,29.2C21.4,139.9,50.7,172.6,88.8,177.9z"/>
	<path fill="#BEBEBE" d="M194.2,100.4c0,45.7-32.5,83.9-75.6,92.6c-3.4-4.6-6.2-9.7-8.5-15c38.4-5.1,68-37.9,68-77.6
		c0-10.3-2-20.2-5.6-29.2c2.8-0.3,5.7-0.5,8.6-0.5c2.9,0,5.8,0.2,8.6,0.5C192.6,80.4,194.2,90.2,194.2,100.4z"/>
</g>
<g>
	<path fill="#3F3F3F" d="M113.5,138.2H99.4v-7.8h-37v-29.1c0-4.4,0.7-8.4,2-11.9c1.3-3.6,3.2-6.6,5.7-9.1c2.5-2.5,5.5-4.4,9.1-5.8
		c3.6-1.4,7.6-2,12.2-2H137v29.1c0,4-0.6,7.7-1.7,11c-1.2,3.4-2.8,6.3-4.9,8.7c-2.1,2.5-4.7,4.5-7.6,6c-2.9,1.5-5.7,2.4-9.2,2.8
		V138.2z M122.9,86.1H91.6c-2.9,0-5.3,0.3-7.3,0.8c-1.9,0.5-3.5,1.4-4.6,2.6c-1.2,1.2-2,2.8-2.5,4.8c-0.5,2-0.7,4.4-0.7,7.4v15h22.9
		v-7h14.1v7c1.8-0.3,2.8-0.7,4-1.4c1.3-0.7,2.3-1.6,3.1-2.9c0.8-1.2,1.4-2.7,1.7-4.6c0.4-1.8,0.5-4,0.5-6.5V86.1z"/>
</g>
</svg>
